<svg xmlns="http://www.w3.org/2000/svg" width="1200" height="643" viewBox="0 0 1200 643" role="img" aria-label="KSB LabelPrint create workspace screenshot"><defs><linearGradient id="bg" x1="0" y1="0" x2="1" y2="1"><stop stop-color="#f4f5f7"/><stop offset="1" stop-color="#e8ebef"/></linearGradient><filter id="shadow" x="-20%" y="-20%" width="140%" height="140%"><feDropShadow dx="0" dy="8" stdDeviation="14" flood-color="#26303d" flood-opacity=".10"/></filter></defs><rect width="1200" height="643" fill="url(#bg)"/><rect x="16" y="16" width="128" height="611" rx="34" fill="#fff" filter="url(#shadow)"/><text x="61" y="52" font-family="Arial,sans-serif" font-size="14" font-weight="800" fill="#111315">▣ KSB</text><text x="60" y="83" font-family="Arial,sans-serif" font-size="10" fill="#606873">LabelPrint</text><rect x="28" y="138" width="104" height="82" rx="22" fill="#dfff3f"/><text x="68" y="172" font-family="Arial,sans-serif" font-size="28" fill="#111315">▣</text><text x="58" y="194" font-family="Arial,sans-serif" font-size="11" font-weight="800" fill="#111315">Create</text><text x="62" y="256" font-family="Arial,sans-serif" font-size="25" fill="#737a84">◷</text><text x="57" y="281" font-family="Arial,sans-serif" font-size="10" fill="#606873">History</text><text x="63" y="344" font-family="Arial,sans-serif" font-size="24" fill="#737a84">⌁</text><text x="53" y="369" font-family="Arial,sans-serif" font-size="10" fill="#606873">Analytics</text><text x="53" y="592" font-family="Arial,sans-serif" font-size="10" fill="#606873">⚙ Settings</text><circle cx="188" cy="42" r="22" fill="#cfe9de" stroke="#fff" stroke-width="5"/><text x="179" y="47" font-family="Arial" font-size="11" font-weight="800">RA</text><text x="222" y="42" font-family="Arial,sans-serif" font-size="22" font-weight="900" fill="#111315">Hi, Rayhan!</text><text x="222" y="60" font-family="Arial,sans-serif" font-size="10" fill="#7a818b">Let’s get those labels printed.</text><rect x="888" y="22" width="240" height="38" rx="19" fill="#fff" stroke="#e1e4e8"/><text x="910" y="46" font-family="Arial" font-size="10" fill="#818891">⌕  Search current batch</text><circle cx="1161" cy="41" r="19" fill="#fff"/><circle cx="1161" cy="41" r="6" fill="#65d49b"/><rect x="162" y="82" width="1020" height="304" rx="34" fill="#fff" filter="url(#shadow)"/><rect x="186" y="140" width="74" height="74" rx="20" fill="#dfff3f"/><text x="207" y="188" font-family="Arial" font-size="39" fill="#111315">▤</text><rect x="498" y="140" width="66" height="66" rx="19" fill="#dfff3f"/><text x="518" y="184" font-family="Arial" font-size="32">▣</text><text x="580" y="178" font-family="Arial,sans-serif" font-size="28" font-weight="900" fill="#111315">KSB LabelPrint</text><text x="580" y="202" font-family="Arial" font-size="11" fill="#777f89">Create. Preview. Print with precision for Rayhan.</text><line x1="960" y1="103" x2="960" y2="255" stroke="#e7e9ec"/><line x1="1025" y1="103" x2="1025" y2="255" stroke="#e7e9ec"/><line x1="1093" y1="103" x2="1093" y2="255" stroke="#e7e9ec"/><text x="973" y="125" font-family="Arial" font-size="8" fill="#7d858f">Active layout</text><text x="973" y="166" font-family="Arial" font-size="18" font-weight="900">3 × 3</text><text x="1038" y="125" font-family="Arial" font-size="8" fill="#7d858f">Recipients</text><text x="1038" y="166" font-family="Arial" font-size="18" font-weight="900">2</text><text x="1106" y="125" font-family="Arial" font-size="8" fill="#7d858f">Physical label</text><text x="1106" y="166" font-family="Arial" font-size="18" font-weight="900">91 × 62</text><text x="1106" y="185" font-family="Arial" font-size="13" font-weight="900">mm</text><rect x="186" y="284" width="290" height="38" rx="12" fill="#fff" stroke="#e5e7eb"/><text x="290" y="307" font-family="Arial" font-size="10" font-weight="800">⇧ Import recipients</text><rect x="186" y="329" width="290" height="38" rx="12" fill="#111315"/><text x="289" y="352" font-family="Arial" font-size="10" font-weight="800" fill="#fff">＋ New recipient</text><rect x="162" y="402" width="267" height="225" rx="28" fill="#fff" filter="url(#shadow)"/><text x="181" y="435" font-family="Arial" font-size="18" font-weight="900">Current batch</text><text x="181" y="453" font-family="Arial" font-size="9" fill="#7a818b">2 recipients</text><rect x="179" y="467" width="231" height="64" rx="18" fill="#f4ffd0" stroke="#dfff3f"/><circle cx="205" cy="499" r="18" fill="#fff"/><text x="199" y="503" font-family="Arial" font-size="9">01</text><text x="231" y="495" font-family="Arial" font-size="11" font-weight="800">Blank recipient</text><text x="231" y="512" font-family="Arial" font-size="8" fill="#7a818b">Ready to edit</text><rect x="179" y="541" width="231" height="64" rx="18" fill="#fff" stroke="#e6e8eb"/><circle cx="205" cy="573" r="18" fill="#f3f4f6"/><text x="199" y="577" font-family="Arial" font-size="9">02</text><text x="231" y="569" font-family="Arial" font-size="11" font-weight="800">Blank recipient</text><text x="231" y="586" font-family="Arial" font-size="8" fill="#7a818b">Ready to edit</text><rect x="444" y="402" width="255" height="225" rx="28" fill="#fff" filter="url(#shadow)"/><text x="462" y="435" font-family="Arial" font-size="18" font-weight="900">Edit label</text><text x="462" y="453" font-family="Arial" font-size="9" fill="#7a818b">Changes update the preview immediately.</text><circle cx="478" cy="492" r="20" fill="#111315"/><text x="470" y="497" font-family="Arial" font-size="10" fill="#fff">01</text><text x="510" y="487" font-family="Arial" font-size="11" font-weight="800">Selected recipient</text><text x="510" y="504" font-family="Arial" font-size="8" fill="#7a818b">Original label template preserved</text><rect x="460" y="540" width="221" height="48" rx="12" fill="#f7f8fa" stroke="#e6e8eb"/><text x="472" y="568" font-family="Arial" font-size="10" fill="#606873">Prefix      None</text><rect x="713" y="402" width="469" height="225" rx="28" fill="#fff" filter="url(#shadow)"/><text x="731" y="435" font-family="Arial" font-size="18" font-weight="900">Live print preview</text><text x="731" y="453" font-family="Arial" font-size="9" fill="#7a818b">A4 landscape · original KSB label design</text><rect x="731" y="466" width="52" height="32" rx="16" fill="#111315"/><text x="746" y="486" font-family="Arial" font-size="9" font-weight="800" fill="#fff">3 × 3</text><rect x="791" y="466" width="52" height="32" rx="16" fill="#fff" stroke="#e5e7eb"/><text x="806" y="486" font-family="Arial" font-size="9">3 × 2</text><rect x="851" y="466" width="52" height="32" rx="16" fill="#fff" stroke="#e5e7eb"/><text x="866" y="486" font-family="Arial" font-size="9">2 × 2</text><rect x="731" y="510" width="430" height="100" rx="18" fill="#e5e8ec"/><rect x="781" y="525" width="330" height="74" rx="4" fill="#fff"/><rect x="797" y="535" width="92" height="23" fill="#fff" stroke="#111"/><rect x="900" y="535" width="92" height="23" fill="#fff" stroke="#111"/><rect x="1003" y="535" width="92" height="23" fill="#fff" stroke="#111"/><rect x="797" y="566" width="92" height="23" fill="#fff" stroke="#111"/><rect x="900" y="566" width="92" height="23" fill="#fff" stroke="#111"/><rect x="1003" y="566" width="92" height="23" fill="#fff" stroke="#111"/></svg>