<svg xmlns="http://www.w3.org/2000/svg" width="1400" height="796" viewBox="0 0 1400 796" role="img" aria-label="KSB LabelPrint batch history screenshot"><defs><linearGradient id="bg" x1="0" y1="0" x2="1" y2="1"><stop stop-color="#0c0f13"/><stop offset="1" stop-color="#14191f"/></linearGradient><filter id="s" x="-20%" y="-20%" width="140%" height="140%"><feDropShadow dx="0" dy="8" stdDeviation="16" flood-color="#000" flood-opacity=".26"/></filter></defs><rect width="1400" height="796" fill="url(#bg)"/><rect x="14" y="16" width="106" height="764" rx="32" fill="#151a20" stroke="#4c5761"/><text x="40" y="72" font-family="Arial" font-size="19" font-weight="900" fill="#fff">▣ KSB</text><line x1="25" y1="108" x2="109" y2="108" stroke="#303841"/><text x="58" y="160" font-family="Arial" font-size="25" fill="#9aa3ad">▣</text><text x="50" y="184" font-family="Arial" font-size="10" fill="#a5adb6">Create</text><rect x="23" y="201" width="88" height="72" rx="20" fill="#a80709"/><text x="56" y="235" font-family="Arial" font-size="25" fill="#fff">◷</text><text x="49" y="258" font-family="Arial" font-size="10" font-weight="800" fill="#fff">History</text><text x="56" y="320" font-family="Arial" font-size="24" fill="#9aa3ad">⌁</text><text x="43" y="343" font-family="Arial" font-size="10" fill="#a5adb6">Analytics</text><text x="39" y="744" font-family="Arial" font-size="10" fill="#a5adb6">⚙ Settings</text><circle cx="157" cy="40" r="22" fill="#b50b0d"/><text x="147" y="45" font-family="Arial" font-size="10" font-weight="800" fill="#fff">RA</text><text x="188" y="40" font-family="Arial" font-size="21" font-weight="900" fill="#fff">Hi, Rayhan!</text><text x="188" y="57" font-family="Arial" font-size="9" fill="#8f99a4">Review previously generated label batches.</text><rect x="1073" y="20" width="260" height="38" rx="19" fill="#11161c" stroke="#323b45"/><text x="1093" y="44" font-family="Arial" font-size="10" fill="#8f99a4">⌕  Search current batch</text><circle cx="1360" cy="39" r="18" fill="#12171d" stroke="#303841"/><circle cx="1360" cy="39" r="6" fill="#61d130"/><rect x="134" y="74" width="1248" height="124" rx="30" fill="#171c22" stroke="#303841" filter="url(#s)"/><text x="157" y="114" font-family="Arial" font-size="10" font-weight="800" letter-spacing="2" fill="#dfff3f">GENERATION LOG</text><text x="157" y="151" font-family="Arial" font-size="31" font-weight="900" fill="#f5f7fa">Label history</text><text x="157" y="173" font-family="Arial" font-size="10" fill="#9099a4">Review previous batches, import history, load recipients back into the editor, or delete a batch.</text><rect x="1257" y="93" width="99" height="35" rx="12" fill="#1c2229" stroke="#59636e"/><text x="1274" y="115" font-family="Arial" font-size="9" font-weight="800" fill="#fff">⇧ Import history</text><rect x="1257" y="139" width="99" height="36" rx="12" fill="#dfff3f"/><text x="1280" y="162" font-family="Arial" font-size="9" font-weight="900" fill="#101315">＋ New batch</text><rect x="134" y="210" width="305" height="107" rx="24" fill="#cfe9de"/><text x="153" y="241" font-family="Arial" font-size="10" fill="#20262c">Saved batches</text><text x="153" y="285" font-family="Arial" font-size="31" font-weight="900" fill="#111315">68</text><text x="153" y="303" font-family="Arial" font-size="9" fill="#303840">Local cache</text><rect x="451" y="210" width="305" height="107" rx="24" fill="#343c42" stroke="#65717b"/><text x="470" y="241" font-family="Arial" font-size="10" fill="#d5d9dd">Total labels</text><text x="470" y="285" font-family="Arial" font-size="31" font-weight="900" fill="#fff">214</text><text x="470" y="303" font-family="Arial" font-size="9" fill="#b2bac2">Local cache</text><rect x="768" y="210" width="305" height="107" rx="24" fill="#343c42" stroke="#65717b"/><text x="787" y="241" font-family="Arial" font-size="10" fill="#d5d9dd">Recipients</text><text x="787" y="285" font-family="Arial" font-size="31" font-weight="900" fill="#fff">83</text><text x="787" y="303" font-family="Arial" font-size="9" fill="#b2bac2">Local cache</text><rect x="1085" y="210" width="297" height="107" rx="24" fill="#171c22" stroke="#65717b"/><text x="1104" y="241" font-family="Arial" font-size="10" fill="#d5d9dd">Latest layout</text><text x="1104" y="285" font-family="Arial" font-size="31" font-weight="900" fill="#fff">3 × 3</text><text x="1104" y="303" font-family="Arial" font-size="9" fill="#b2bac2">Local cache</text><rect x="134" y="333" width="669" height="447" rx="28" fill="#171c22" stroke="#303841"/><text x="151" y="367" font-family="Arial" font-size="19" font-weight="900" fill="#f5f7fa">Generated batches</text><text x="151" y="384" font-family="Arial" font-size="9" fill="#8f99a4">68 batches</text><g font-family="Arial"><rect x="145" y="400" width="647" height="66" rx="16" fill="#1c2229" stroke="#323b45"/><rect x="157" y="414" width="39" height="38" rx="10" fill="#252d35"/><text x="166" y="438" font-size="9" fill="#fff">3 × 3</text><text x="211" y="428" font-size="10" font-weight="800" fill="#fff">KSB-MREGO70A</text><circle cx="321" cy="424" r="5" fill="#46c784"/><text x="211" y="445" font-size="8" fill="#9ba5af">PT MERDEKA MINING SERVIS · PT ULIMA NITRA</text><text x="769" y="438" font-size="10" font-weight="900" fill="#dfff3f">9</text><rect x="145" y="476" width="647" height="66" rx="16" fill="#1c2229" stroke="#323b45"/><rect x="157" y="490" width="39" height="38" rx="10" fill="#252d35"/><text x="166" y="514" font-size="9" fill="#fff">3 × 3</text><text x="211" y="504" font-size="10" font-weight="800" fill="#fff">BATCH-20260706142153</text><circle cx="352" cy="500" r="5" fill="#46c784"/><text x="211" y="521" font-size="8" fill="#9ba5af">PT MANDARA PERMAI · PT MULTI SARANA MARITIM</text><text x="769" y="514" font-size="10" font-weight="900" fill="#dfff3f">6</text><rect x="145" y="552" width="647" height="66" rx="16" fill="#1c2229" stroke="#323b45"/><rect x="157" y="566" width="39" height="38" rx="10" fill="#252d35"/><text x="166" y="590" font-size="9" fill="#fff">3 × 3</text><text x="211" y="580" font-size="10" font-weight="800" fill="#fff">BATCH-20260706142112</text><circle cx="352" cy="576" r="5" fill="#46c784"/><text x="211" y="597" font-size="8" fill="#9ba5af">PT MANDARA PERMAI · PT MULTI SARANA MARITIM</text><text x="769" y="590" font-size="10" font-weight="900" fill="#dfff3f">6</text><rect x="145" y="628" width="647" height="66" rx="16" fill="#1c2229" stroke="#323b45"/><rect x="157" y="642" width="39" height="38" rx="10" fill="#252d35"/><text x="166" y="666" font-size="9" fill="#fff">3 × 3</text><text x="211" y="656" font-size="10" font-weight="800" fill="#fff">BATCH-20260703091933</text><circle cx="352" cy="652" r="5" fill="#46c784"/><text x="211" y="673" font-size="8" fill="#9ba5af">PT CAHAYA BERLIAN INTERTECH</text><text x="769" y="666" font-size="10" font-weight="900" fill="#dfff3f">6</text></g><rect x="815" y="333" width="567" height="447" rx="28" fill="#171c22" stroke="#303841"/><text x="834" y="365" font-family="Arial" font-size="9" font-weight="800" letter-spacing="2" fill="#9ba5af">BATCH DETAILS</text><text x="834" y="390" font-family="Arial" font-size="20" font-weight="900" fill="#f5f7fa">KSB-MREGO70A</text><rect x="1329" y="351" width="36" height="19" rx="10" fill="#dfff3f"/><text x="1338" y="364" font-family="Arial" font-size="8" font-weight="900" fill="#111315">9 labels</text><line x1="834" y1="414" x2="1363" y2="414" stroke="#303841"/><g font-family="Arial" font-size="9"><text x="835" y="440" font-weight="800" fill="#fff">01 · PT MERDEKA MINING SERVIS</text><text x="835" y="454" fill="#9ba5af">Deny Gustaman/Dhefi Nur Afni</text><text x="835" y="487" font-weight="800" fill="#fff">02 · PT ULIMA NITRA</text><text x="835" y="501" fill="#9ba5af">BAG KEUANGAN</text><text x="835" y="534" font-weight="800" fill="#fff">03 · PT INDIROSAN SUKSESTAMA ABADI</text><text x="835" y="548" fill="#9ba5af">BPK JULMAN</text><text x="835" y="581" font-weight="800" fill="#fff">04 · PT TIARA CIPTA NIRWANA</text><text x="835" y="595" fill="#9ba5af">Bapak Jafar Sidik</text><text x="835" y="628" font-weight="800" fill="#fff">05 · PT JO TIMAS SUPLINDO</text><text x="835" y="642" fill="#9ba5af">Indiera Abadi</text><text x="835" y="675" font-weight="800" fill="#fff">06 · KERJA SAMA OPERASI MEDCO</text><text x="835" y="689" fill="#9ba5af">Hanny Artikta</text></g><rect x="1240" y="731" width="60" height="35" rx="11" fill="#212830" stroke="#35404a"/><text x="1261" y="753" font-family="Arial" font-size="9" font-weight="800" fill="#fff">Delete</text><rect x="1307" y="731" width="58" height="35" rx="11" fill="#f5f7fa"/><text x="1320" y="753" font-family="Arial" font-size="9" font-weight="800" fill="#111315">Load batch</text></svg>